<mxfile host="Electron" modified="2024-02-26T12:53:33.227Z" agent="Mozilla/5.0 (Windows NT 10.0; Win64; x64) AppleWebKit/537.36 (KHTML, like Gecko) draw.io/22.1.2 Chrome/114.0.5735.289 Electron/25.9.4 Safari/537.36" etag="Vskaqg_7XJPvKgpfwDLL" version="22.1.2" type="device">
  <diagram name="Страница — 1" id="FWGb7FB_M1ZhrTtqjoIN">
    <mxGraphModel dx="4280" dy="3216" grid="1" gridSize="10" guides="1" tooltips="1" connect="1" arrows="1" fold="1" page="1" pageScale="1" pageWidth="827" pageHeight="1169" math="0" shadow="0">
      <root>
        <mxCell id="0" />
        <mxCell id="1" parent="0" />
        <mxCell id="GF1Wdmy1YUisDk9Af-3S-17" value="void resetBoard(){" style="text;html=1;strokeColor=none;fillColor=none;align=center;verticalAlign=middle;whiteSpace=wrap;rounded=0;fontSize=24;fontFamily=Times New Roman;fontColor=default;" vertex="1" parent="1">
          <mxGeometry x="20" y="-550" width="190" height="30" as="geometry" />
        </mxCell>
        <mxCell id="GF1Wdmy1YUisDk9Af-3S-18" value="" style="endArrow=classic;html=1;rounded=0;fontFamily=Times New Roman;fontSize=24;fontColor=default;" edge="1" parent="1">
          <mxGeometry width="50" height="50" relative="1" as="geometry">
            <mxPoint x="110" y="-510" as="sourcePoint" />
            <mxPoint x="110" y="-450" as="targetPoint" />
          </mxGeometry>
        </mxCell>
        <mxCell id="GF1Wdmy1YUisDk9Af-3S-20" style="edgeStyle=orthogonalEdgeStyle;rounded=0;orthogonalLoop=1;jettySize=auto;html=1;exitX=0.5;exitY=1;exitDx=0;exitDy=0;fontFamily=Times New Roman;fontSize=24;fontColor=default;" edge="1" parent="1" source="GF1Wdmy1YUisDk9Af-3S-19">
          <mxGeometry relative="1" as="geometry">
            <mxPoint x="110" y="-300" as="targetPoint" />
          </mxGeometry>
        </mxCell>
        <mxCell id="GF1Wdmy1YUisDk9Af-3S-30" style="edgeStyle=orthogonalEdgeStyle;rounded=0;orthogonalLoop=1;jettySize=auto;html=1;exitX=1;exitY=0.5;exitDx=0;exitDy=0;fontFamily=Times New Roman;fontSize=24;fontColor=default;" edge="1" parent="1" source="GF1Wdmy1YUisDk9Af-3S-19">
          <mxGeometry relative="1" as="geometry">
            <mxPoint x="560" y="-240.00000000000023" as="targetPoint" />
          </mxGeometry>
        </mxCell>
        <mxCell id="GF1Wdmy1YUisDk9Af-3S-19" value="for (int i = 0; i &amp;lt; 8; i ++){" style="shape=hexagon;perimeter=hexagonPerimeter2;whiteSpace=wrap;html=1;fixedSize=1;strokeColor=default;align=center;verticalAlign=middle;fontFamily=Times New Roman;fontSize=24;fontColor=default;fillColor=default;" vertex="1" parent="1">
          <mxGeometry x="-30" y="-450" width="280" height="80" as="geometry" />
        </mxCell>
        <mxCell id="GF1Wdmy1YUisDk9Af-3S-23" style="edgeStyle=orthogonalEdgeStyle;rounded=0;orthogonalLoop=1;jettySize=auto;html=1;exitX=0.5;exitY=1;exitDx=0;exitDy=0;fontFamily=Times New Roman;fontSize=24;fontColor=default;" edge="1" parent="1" source="GF1Wdmy1YUisDk9Af-3S-22" target="GF1Wdmy1YUisDk9Af-3S-24">
          <mxGeometry relative="1" as="geometry">
            <mxPoint x="110" y="-150" as="targetPoint" />
          </mxGeometry>
        </mxCell>
        <mxCell id="GF1Wdmy1YUisDk9Af-3S-27" style="edgeStyle=orthogonalEdgeStyle;rounded=0;orthogonalLoop=1;jettySize=auto;html=1;exitX=1;exitY=0.5;exitDx=0;exitDy=0;entryX=0;entryY=0.5;entryDx=0;entryDy=0;fontFamily=Times New Roman;fontSize=24;fontColor=default;" edge="1" parent="1" source="GF1Wdmy1YUisDk9Af-3S-22" target="GF1Wdmy1YUisDk9Af-3S-19">
          <mxGeometry relative="1" as="geometry">
            <Array as="points">
              <mxPoint x="360" y="-260" />
              <mxPoint x="360" />
              <mxPoint x="-160" />
              <mxPoint x="-160" y="-410" />
            </Array>
          </mxGeometry>
        </mxCell>
        <mxCell id="GF1Wdmy1YUisDk9Af-3S-22" value="for (int j = 0; j &amp;lt; 8; j ++){" style="shape=hexagon;perimeter=hexagonPerimeter2;whiteSpace=wrap;html=1;fixedSize=1;strokeColor=default;align=center;verticalAlign=middle;fontFamily=Times New Roman;fontSize=24;fontColor=default;fillColor=default;" vertex="1" parent="1">
          <mxGeometry x="-30" y="-300" width="280" height="80" as="geometry" />
        </mxCell>
        <mxCell id="GF1Wdmy1YUisDk9Af-3S-25" style="edgeStyle=orthogonalEdgeStyle;rounded=0;orthogonalLoop=1;jettySize=auto;html=1;exitX=0.5;exitY=1;exitDx=0;exitDy=0;entryX=0;entryY=0.5;entryDx=0;entryDy=0;fontFamily=Times New Roman;fontSize=24;fontColor=default;" edge="1" parent="1" source="GF1Wdmy1YUisDk9Af-3S-24" target="GF1Wdmy1YUisDk9Af-3S-22">
          <mxGeometry relative="1" as="geometry">
            <Array as="points">
              <mxPoint x="110" y="-40" />
              <mxPoint x="-80" y="-40" />
              <mxPoint x="-80" y="-260" />
            </Array>
          </mxGeometry>
        </mxCell>
        <mxCell id="GF1Wdmy1YUisDk9Af-3S-24" value="board[i][j] = 0;" style="rounded=0;whiteSpace=wrap;html=1;strokeColor=default;align=center;verticalAlign=middle;fontFamily=Times New Roman;fontSize=24;fontColor=default;fillColor=default;" vertex="1" parent="1">
          <mxGeometry x="27.5" y="-167" width="165" height="60" as="geometry" />
        </mxCell>
        <mxCell id="GF1Wdmy1YUisDk9Af-3S-26" value="True" style="text;html=1;align=center;verticalAlign=middle;resizable=0;points=[];autosize=1;strokeColor=none;fillColor=none;fontSize=24;fontFamily=Times New Roman;fontColor=default;" vertex="1" parent="1">
          <mxGeometry x="105" y="-217" width="70" height="40" as="geometry" />
        </mxCell>
        <mxCell id="GF1Wdmy1YUisDk9Af-3S-28" value="True" style="text;html=1;align=center;verticalAlign=middle;resizable=0;points=[];autosize=1;strokeColor=none;fillColor=none;fontSize=24;fontFamily=Times New Roman;fontColor=default;" vertex="1" parent="1">
          <mxGeometry x="105" y="-360" width="70" height="40" as="geometry" />
        </mxCell>
        <mxCell id="GF1Wdmy1YUisDk9Af-3S-29" value="False" style="text;html=1;align=center;verticalAlign=middle;resizable=0;points=[];autosize=1;strokeColor=none;fillColor=none;fontSize=24;fontFamily=Times New Roman;fontColor=default;" vertex="1" parent="1">
          <mxGeometry x="265" y="-297" width="70" height="40" as="geometry" />
        </mxCell>
        <mxCell id="GF1Wdmy1YUisDk9Af-3S-31" value="False" style="text;html=1;align=center;verticalAlign=middle;resizable=0;points=[];autosize=1;strokeColor=none;fillColor=none;fontSize=24;fontFamily=Times New Roman;fontColor=default;" vertex="1" parent="1">
          <mxGeometry x="360" y="-450" width="70" height="40" as="geometry" />
        </mxCell>
        <mxCell id="GF1Wdmy1YUisDk9Af-3S-32" value="конец" style="ellipse;whiteSpace=wrap;html=1;strokeColor=default;align=center;verticalAlign=middle;fontFamily=Times New Roman;fontSize=24;fontColor=default;fillColor=default;" vertex="1" parent="1">
          <mxGeometry x="500" y="-240" width="120" height="83" as="geometry" />
        </mxCell>
        <mxCell id="GF1Wdmy1YUisDk9Af-3S-33" value="}" style="text;html=1;align=center;verticalAlign=middle;resizable=0;points=[];autosize=1;strokeColor=none;fillColor=none;fontSize=24;fontFamily=Times New Roman;fontColor=default;" vertex="1" parent="1">
          <mxGeometry x="610" y="-217" width="40" height="40" as="geometry" />
        </mxCell>
        <mxCell id="GF1Wdmy1YUisDk9Af-3S-34" value="void setQueen(int i, int j){" style="text;html=1;align=center;verticalAlign=middle;resizable=0;points=[];autosize=1;strokeColor=none;fillColor=none;fontSize=24;fontFamily=Times New Roman;fontColor=default;" vertex="1" parent="1">
          <mxGeometry x="1135" y="-555" width="280" height="40" as="geometry" />
        </mxCell>
        <mxCell id="GF1Wdmy1YUisDk9Af-3S-35" value="" style="endArrow=classic;html=1;rounded=0;fontFamily=Times New Roman;fontSize=24;fontColor=default;" edge="1" parent="1">
          <mxGeometry width="50" height="50" relative="1" as="geometry">
            <mxPoint x="1274.17" y="-515" as="sourcePoint" />
            <mxPoint x="1274.17" y="-450" as="targetPoint" />
          </mxGeometry>
        </mxCell>
        <mxCell id="GF1Wdmy1YUisDk9Af-3S-39" style="edgeStyle=orthogonalEdgeStyle;rounded=0;orthogonalLoop=1;jettySize=auto;html=1;exitX=0.5;exitY=1;exitDx=0;exitDy=0;fontFamily=Times New Roman;fontSize=24;fontColor=default;" edge="1" parent="1" source="GF1Wdmy1YUisDk9Af-3S-38">
          <mxGeometry relative="1" as="geometry">
            <mxPoint x="1275" y="-280" as="targetPoint" />
          </mxGeometry>
        </mxCell>
        <mxCell id="GF1Wdmy1YUisDk9Af-3S-61" style="edgeStyle=orthogonalEdgeStyle;rounded=0;orthogonalLoop=1;jettySize=auto;html=1;exitX=0;exitY=0.5;exitDx=0;exitDy=0;fontFamily=Times New Roman;fontSize=24;fontColor=default;startArrow=classic;startFill=1;endArrow=none;endFill=0;" edge="1" parent="1" source="GF1Wdmy1YUisDk9Af-3S-38">
          <mxGeometry relative="1" as="geometry">
            <mxPoint x="1280" y="840" as="targetPoint" />
            <Array as="points">
              <mxPoint x="880" y="-410" />
              <mxPoint x="880" y="960" />
              <mxPoint x="1281" y="960" />
            </Array>
          </mxGeometry>
        </mxCell>
        <mxCell id="GF1Wdmy1YUisDk9Af-3S-62" style="edgeStyle=orthogonalEdgeStyle;rounded=0;orthogonalLoop=1;jettySize=auto;html=1;exitX=1;exitY=0.5;exitDx=0;exitDy=0;fontFamily=Times New Roman;fontSize=24;fontColor=default;" edge="1" parent="1" source="GF1Wdmy1YUisDk9Af-3S-38">
          <mxGeometry relative="1" as="geometry">
            <mxPoint x="1800" y="-80" as="targetPoint" />
            <Array as="points">
              <mxPoint x="1800" y="-410" />
              <mxPoint x="1800" y="-100" />
            </Array>
          </mxGeometry>
        </mxCell>
        <mxCell id="GF1Wdmy1YUisDk9Af-3S-38" value="for (int x = 0; x &amp;lt; 8; x ++){" style="shape=hexagon;perimeter=hexagonPerimeter2;whiteSpace=wrap;html=1;fixedSize=1;strokeColor=default;align=center;verticalAlign=middle;fontFamily=Times New Roman;fontSize=24;fontColor=default;fillColor=default;" vertex="1" parent="1">
          <mxGeometry x="1130" y="-450" width="290" height="80" as="geometry" />
        </mxCell>
        <mxCell id="GF1Wdmy1YUisDk9Af-3S-40" value="True" style="text;html=1;align=center;verticalAlign=middle;resizable=0;points=[];autosize=1;strokeColor=none;fillColor=none;fontSize=24;fontFamily=Times New Roman;fontColor=default;" vertex="1" parent="1">
          <mxGeometry x="1280" y="-340" width="70" height="40" as="geometry" />
        </mxCell>
        <mxCell id="GF1Wdmy1YUisDk9Af-3S-43" style="edgeStyle=orthogonalEdgeStyle;rounded=0;orthogonalLoop=1;jettySize=auto;html=1;exitX=0.5;exitY=1;exitDx=0;exitDy=0;fontFamily=Times New Roman;fontSize=24;fontColor=default;entryX=0.5;entryY=0;entryDx=0;entryDy=0;" edge="1" parent="1" source="GF1Wdmy1YUisDk9Af-3S-41" target="GF1Wdmy1YUisDk9Af-3S-44">
          <mxGeometry relative="1" as="geometry">
            <mxPoint x="1273" y="-100" as="targetPoint" />
          </mxGeometry>
        </mxCell>
        <mxCell id="GF1Wdmy1YUisDk9Af-3S-41" value="board[x][j]&amp;nbsp; ++;&lt;br&gt;board[i][x] ++;&lt;br&gt;int d = j - i + x;" style="rounded=0;whiteSpace=wrap;html=1;strokeColor=default;align=center;verticalAlign=middle;fontFamily=Times New Roman;fontSize=24;fontColor=default;fillColor=default;" vertex="1" parent="1">
          <mxGeometry x="1150" y="-280" width="247.5" height="117" as="geometry" />
        </mxCell>
        <mxCell id="GF1Wdmy1YUisDk9Af-3S-45" style="edgeStyle=orthogonalEdgeStyle;rounded=0;orthogonalLoop=1;jettySize=auto;html=1;exitX=0;exitY=0.5;exitDx=0;exitDy=0;fontFamily=Times New Roman;fontSize=24;fontColor=default;" edge="1" parent="1" source="GF1Wdmy1YUisDk9Af-3S-44">
          <mxGeometry relative="1" as="geometry">
            <mxPoint x="1040" y="80" as="targetPoint" />
            <Array as="points">
              <mxPoint x="1040" />
            </Array>
          </mxGeometry>
        </mxCell>
        <mxCell id="GF1Wdmy1YUisDk9Af-3S-47" style="edgeStyle=orthogonalEdgeStyle;rounded=0;orthogonalLoop=1;jettySize=auto;html=1;exitX=1;exitY=0.5;exitDx=0;exitDy=0;fontFamily=Times New Roman;fontSize=24;fontColor=default;entryX=0.5;entryY=1;entryDx=0;entryDy=0;endArrow=none;endFill=0;" edge="1" parent="1" source="GF1Wdmy1YUisDk9Af-3S-44" target="GF1Wdmy1YUisDk9Af-3S-49">
          <mxGeometry relative="1" as="geometry">
            <mxPoint x="1520" y="80" as="targetPoint" />
            <Array as="points">
              <mxPoint x="1520" />
              <mxPoint x="1520" y="280" />
              <mxPoint x="1040" y="280" />
            </Array>
          </mxGeometry>
        </mxCell>
        <mxCell id="GF1Wdmy1YUisDk9Af-3S-44" value="if (0 &amp;lt;= d &amp;amp;&amp;amp; d &amp;lt; 8){" style="rhombus;whiteSpace=wrap;html=1;strokeColor=default;align=center;verticalAlign=middle;fontFamily=Times New Roman;fontSize=24;fontColor=default;fillColor=default;" vertex="1" parent="1">
          <mxGeometry x="1125.63" y="-100" width="296.25" height="200" as="geometry" />
        </mxCell>
        <mxCell id="GF1Wdmy1YUisDk9Af-3S-46" value="True" style="text;html=1;align=center;verticalAlign=middle;resizable=0;points=[];autosize=1;strokeColor=none;fillColor=none;fontSize=24;fontFamily=Times New Roman;fontColor=default;" vertex="1" parent="1">
          <mxGeometry x="1050" y="-40" width="70" height="40" as="geometry" />
        </mxCell>
        <mxCell id="GF1Wdmy1YUisDk9Af-3S-48" value="False" style="text;html=1;align=center;verticalAlign=middle;resizable=0;points=[];autosize=1;strokeColor=none;fillColor=none;fontSize=24;fontFamily=Times New Roman;fontColor=default;" vertex="1" parent="1">
          <mxGeometry x="1440" y="-40" width="70" height="40" as="geometry" />
        </mxCell>
        <mxCell id="GF1Wdmy1YUisDk9Af-3S-49" value="board [x][d] ++;" style="whiteSpace=wrap;html=1;strokeColor=default;align=center;verticalAlign=middle;fontFamily=Times New Roman;fontSize=24;fontColor=default;fillColor=default;" vertex="1" parent="1">
          <mxGeometry x="950" y="80" width="180" height="60" as="geometry" />
        </mxCell>
        <mxCell id="GF1Wdmy1YUisDk9Af-3S-51" value="" style="endArrow=classic;html=1;rounded=0;fontFamily=Times New Roman;fontSize=24;fontColor=default;" edge="1" parent="1">
          <mxGeometry width="50" height="50" relative="1" as="geometry">
            <mxPoint x="1272.92" y="280" as="sourcePoint" />
            <mxPoint x="1273" y="330" as="targetPoint" />
          </mxGeometry>
        </mxCell>
        <mxCell id="GF1Wdmy1YUisDk9Af-3S-54" style="edgeStyle=orthogonalEdgeStyle;rounded=0;orthogonalLoop=1;jettySize=auto;html=1;exitX=0.5;exitY=1;exitDx=0;exitDy=0;fontFamily=Times New Roman;fontSize=24;fontColor=default;" edge="1" parent="1" source="GF1Wdmy1YUisDk9Af-3S-53">
          <mxGeometry relative="1" as="geometry">
            <mxPoint x="1274" y="440" as="targetPoint" />
          </mxGeometry>
        </mxCell>
        <mxCell id="GF1Wdmy1YUisDk9Af-3S-53" value="d = j + i - x;" style="whiteSpace=wrap;html=1;strokeColor=default;align=center;verticalAlign=middle;fontFamily=Times New Roman;fontSize=24;fontColor=default;fillColor=default;" vertex="1" parent="1">
          <mxGeometry x="1208.75" y="330" width="130" height="60" as="geometry" />
        </mxCell>
        <mxCell id="GF1Wdmy1YUisDk9Af-3S-56" style="edgeStyle=orthogonalEdgeStyle;rounded=0;orthogonalLoop=1;jettySize=auto;html=1;exitX=0;exitY=0.5;exitDx=0;exitDy=0;fontFamily=Times New Roman;fontSize=24;fontColor=default;" edge="1" parent="1" source="GF1Wdmy1YUisDk9Af-3S-55">
          <mxGeometry relative="1" as="geometry">
            <mxPoint x="1040" y="640" as="targetPoint" />
            <Array as="points">
              <mxPoint x="1040" y="540" />
            </Array>
          </mxGeometry>
        </mxCell>
        <mxCell id="GF1Wdmy1YUisDk9Af-3S-58" style="edgeStyle=orthogonalEdgeStyle;rounded=0;orthogonalLoop=1;jettySize=auto;html=1;exitX=1;exitY=0.5;exitDx=0;exitDy=0;fontFamily=Times New Roman;fontSize=24;fontColor=default;entryX=0.5;entryY=1;entryDx=0;entryDy=0;endArrow=none;endFill=0;" edge="1" parent="1" source="GF1Wdmy1YUisDk9Af-3S-55" target="GF1Wdmy1YUisDk9Af-3S-60">
          <mxGeometry relative="1" as="geometry">
            <mxPoint x="1520" y="640" as="targetPoint" />
            <Array as="points">
              <mxPoint x="1520" y="540" />
              <mxPoint x="1520" y="840" />
              <mxPoint x="1040" y="840" />
            </Array>
          </mxGeometry>
        </mxCell>
        <mxCell id="GF1Wdmy1YUisDk9Af-3S-55" value="if (0 &amp;lt;= d &amp;amp;&amp;amp; d &amp;lt; 8){" style="rhombus;whiteSpace=wrap;html=1;strokeColor=default;align=center;verticalAlign=middle;fontFamily=Times New Roman;fontSize=24;fontColor=default;fillColor=default;" vertex="1" parent="1">
          <mxGeometry x="1120" y="440" width="307.18" height="200" as="geometry" />
        </mxCell>
        <mxCell id="GF1Wdmy1YUisDk9Af-3S-57" value="True" style="text;html=1;align=center;verticalAlign=middle;resizable=0;points=[];autosize=1;strokeColor=none;fillColor=none;fontSize=24;fontFamily=Times New Roman;fontColor=default;" vertex="1" parent="1">
          <mxGeometry x="1045" y="503" width="70" height="40" as="geometry" />
        </mxCell>
        <mxCell id="GF1Wdmy1YUisDk9Af-3S-59" value="False" style="text;html=1;align=center;verticalAlign=middle;resizable=0;points=[];autosize=1;strokeColor=none;fillColor=none;fontSize=24;fontFamily=Times New Roman;fontColor=default;" vertex="1" parent="1">
          <mxGeometry x="1440" y="503" width="70" height="40" as="geometry" />
        </mxCell>
        <mxCell id="GF1Wdmy1YUisDk9Af-3S-60" value="board [x][d] ++;" style="whiteSpace=wrap;html=1;strokeColor=default;align=center;verticalAlign=middle;fontFamily=Times New Roman;fontSize=24;fontColor=default;fillColor=default;" vertex="1" parent="1">
          <mxGeometry x="950" y="640" width="180" height="60" as="geometry" />
        </mxCell>
        <mxCell id="GF1Wdmy1YUisDk9Af-3S-63" value="False" style="text;html=1;align=center;verticalAlign=middle;resizable=0;points=[];autosize=1;strokeColor=none;fillColor=none;fontSize=24;fontFamily=Times New Roman;fontColor=default;" vertex="1" parent="1">
          <mxGeometry x="1535" y="-450" width="70" height="40" as="geometry" />
        </mxCell>
        <mxCell id="GF1Wdmy1YUisDk9Af-3S-64" value="board [i][j] = -1;" style="rounded=0;whiteSpace=wrap;html=1;strokeColor=default;align=center;verticalAlign=middle;fontFamily=Times New Roman;fontSize=24;fontColor=default;fillColor=default;" vertex="1" parent="1">
          <mxGeometry x="1700" y="-80" width="200" height="68.5" as="geometry" />
        </mxCell>
        <mxCell id="GF1Wdmy1YUisDk9Af-3S-65" value="}" style="text;html=1;align=center;verticalAlign=middle;resizable=0;points=[];autosize=1;strokeColor=none;fillColor=none;fontSize=24;fontFamily=Times New Roman;fontColor=default;" vertex="1" parent="1">
          <mxGeometry x="1900" y="-65.75" width="40" height="40" as="geometry" />
        </mxCell>
        <mxCell id="GF1Wdmy1YUisDk9Af-3S-66" value="}" style="text;html=1;align=center;verticalAlign=middle;resizable=0;points=[];autosize=1;strokeColor=none;fillColor=none;fontSize=24;fontFamily=Times New Roman;fontColor=default;" vertex="1" parent="1">
          <mxGeometry x="1800" y="-140" width="40" height="40" as="geometry" />
        </mxCell>
        <mxCell id="GF1Wdmy1YUisDk9Af-3S-67" value="}" style="text;html=1;align=center;verticalAlign=middle;resizable=0;points=[];autosize=1;strokeColor=none;fillColor=none;fontSize=24;fontFamily=Times New Roman;fontColor=default;" vertex="1" parent="1">
          <mxGeometry x="560" y="-290" width="40" height="40" as="geometry" />
        </mxCell>
        <mxCell id="GF1Wdmy1YUisDk9Af-3S-68" value="}" style="text;html=1;align=center;verticalAlign=middle;resizable=0;points=[];autosize=1;strokeColor=none;fillColor=none;fontSize=24;fontFamily=Times New Roman;fontColor=default;" vertex="1" parent="1">
          <mxGeometry x="360" y="-157" width="40" height="40" as="geometry" />
        </mxCell>
        <mxCell id="GF1Wdmy1YUisDk9Af-3S-69" value="}" style="text;html=1;align=center;verticalAlign=middle;resizable=0;points=[];autosize=1;strokeColor=none;fillColor=none;fontSize=24;fontFamily=Times New Roman;fontColor=default;" vertex="1" parent="1">
          <mxGeometry x="1253.59" y="233" width="40" height="40" as="geometry" />
        </mxCell>
        <mxCell id="GF1Wdmy1YUisDk9Af-3S-70" value="}" style="text;html=1;align=center;verticalAlign=middle;resizable=0;points=[];autosize=1;strokeColor=none;fillColor=none;fontSize=24;fontFamily=Times New Roman;fontColor=default;" vertex="1" parent="1">
          <mxGeometry x="1260" y="790" width="40" height="40" as="geometry" />
        </mxCell>
        <mxCell id="GF1Wdmy1YUisDk9Af-3S-104" value="void removeQueen(int i, int j){" style="text;html=1;align=center;verticalAlign=middle;resizable=0;points=[];autosize=1;strokeColor=none;fillColor=none;fontSize=24;fontFamily=Times New Roman;fontColor=default;" vertex="1" parent="1">
          <mxGeometry x="2705.1400000000003" y="-520" width="320" height="40" as="geometry" />
        </mxCell>
        <mxCell id="GF1Wdmy1YUisDk9Af-3S-105" value="" style="endArrow=classic;html=1;rounded=0;fontFamily=Times New Roman;fontSize=24;fontColor=default;" edge="1" parent="1">
          <mxGeometry width="50" height="50" relative="1" as="geometry">
            <mxPoint x="2864.3100000000004" y="-480" as="sourcePoint" />
            <mxPoint x="2864.3100000000004" y="-415" as="targetPoint" />
          </mxGeometry>
        </mxCell>
        <mxCell id="GF1Wdmy1YUisDk9Af-3S-106" style="edgeStyle=orthogonalEdgeStyle;rounded=0;orthogonalLoop=1;jettySize=auto;html=1;exitX=0.5;exitY=1;exitDx=0;exitDy=0;fontFamily=Times New Roman;fontSize=24;fontColor=default;" edge="1" parent="1" source="GF1Wdmy1YUisDk9Af-3S-109">
          <mxGeometry relative="1" as="geometry">
            <mxPoint x="2865.1400000000003" y="-245" as="targetPoint" />
          </mxGeometry>
        </mxCell>
        <mxCell id="GF1Wdmy1YUisDk9Af-3S-107" style="edgeStyle=orthogonalEdgeStyle;rounded=0;orthogonalLoop=1;jettySize=auto;html=1;exitX=0;exitY=0.5;exitDx=0;exitDy=0;fontFamily=Times New Roman;fontSize=24;fontColor=default;startArrow=classic;startFill=1;endArrow=none;endFill=0;" edge="1" parent="1" source="GF1Wdmy1YUisDk9Af-3S-109">
          <mxGeometry relative="1" as="geometry">
            <mxPoint x="2870.1400000000003" y="875" as="targetPoint" />
            <Array as="points">
              <mxPoint x="2470.1400000000003" y="-375" />
              <mxPoint x="2470.1400000000003" y="995" />
              <mxPoint x="2871.1400000000003" y="995" />
            </Array>
          </mxGeometry>
        </mxCell>
        <mxCell id="GF1Wdmy1YUisDk9Af-3S-108" style="edgeStyle=orthogonalEdgeStyle;rounded=0;orthogonalLoop=1;jettySize=auto;html=1;exitX=1;exitY=0.5;exitDx=0;exitDy=0;fontFamily=Times New Roman;fontSize=24;fontColor=default;" edge="1" parent="1" source="GF1Wdmy1YUisDk9Af-3S-109">
          <mxGeometry relative="1" as="geometry">
            <mxPoint x="3390.1400000000003" y="-45" as="targetPoint" />
            <Array as="points">
              <mxPoint x="3390.1400000000003" y="-375" />
              <mxPoint x="3390.1400000000003" y="-65" />
            </Array>
          </mxGeometry>
        </mxCell>
        <mxCell id="GF1Wdmy1YUisDk9Af-3S-109" value="for (int x = 0; x &amp;lt; 8; x ++){" style="shape=hexagon;perimeter=hexagonPerimeter2;whiteSpace=wrap;html=1;fixedSize=1;strokeColor=default;align=center;verticalAlign=middle;fontFamily=Times New Roman;fontSize=24;fontColor=default;fillColor=default;" vertex="1" parent="1">
          <mxGeometry x="2720.1400000000003" y="-415" width="290" height="80" as="geometry" />
        </mxCell>
        <mxCell id="GF1Wdmy1YUisDk9Af-3S-110" value="True" style="text;html=1;align=center;verticalAlign=middle;resizable=0;points=[];autosize=1;strokeColor=none;fillColor=none;fontSize=24;fontFamily=Times New Roman;fontColor=default;" vertex="1" parent="1">
          <mxGeometry x="2870.1400000000003" y="-305" width="70" height="40" as="geometry" />
        </mxCell>
        <mxCell id="GF1Wdmy1YUisDk9Af-3S-111" style="edgeStyle=orthogonalEdgeStyle;rounded=0;orthogonalLoop=1;jettySize=auto;html=1;exitX=0.5;exitY=1;exitDx=0;exitDy=0;fontFamily=Times New Roman;fontSize=24;fontColor=default;entryX=0.5;entryY=0;entryDx=0;entryDy=0;" edge="1" parent="1" source="GF1Wdmy1YUisDk9Af-3S-112" target="GF1Wdmy1YUisDk9Af-3S-115">
          <mxGeometry relative="1" as="geometry">
            <mxPoint x="2863.1400000000003" y="-65" as="targetPoint" />
          </mxGeometry>
        </mxCell>
        <mxCell id="GF1Wdmy1YUisDk9Af-3S-112" value="board[x][j]&amp;nbsp; --;&lt;br&gt;board[i][x] --;&lt;br&gt;int d = j - i + x;" style="rounded=0;whiteSpace=wrap;html=1;strokeColor=default;align=center;verticalAlign=middle;fontFamily=Times New Roman;fontSize=24;fontColor=default;fillColor=default;" vertex="1" parent="1">
          <mxGeometry x="2740.1400000000003" y="-245" width="247.5" height="117" as="geometry" />
        </mxCell>
        <mxCell id="GF1Wdmy1YUisDk9Af-3S-113" style="edgeStyle=orthogonalEdgeStyle;rounded=0;orthogonalLoop=1;jettySize=auto;html=1;exitX=0;exitY=0.5;exitDx=0;exitDy=0;fontFamily=Times New Roman;fontSize=24;fontColor=default;" edge="1" parent="1" source="GF1Wdmy1YUisDk9Af-3S-115">
          <mxGeometry relative="1" as="geometry">
            <mxPoint x="2630.1400000000003" y="115" as="targetPoint" />
            <Array as="points">
              <mxPoint x="2630.1400000000003" y="35" />
            </Array>
          </mxGeometry>
        </mxCell>
        <mxCell id="GF1Wdmy1YUisDk9Af-3S-114" style="edgeStyle=orthogonalEdgeStyle;rounded=0;orthogonalLoop=1;jettySize=auto;html=1;exitX=1;exitY=0.5;exitDx=0;exitDy=0;fontFamily=Times New Roman;fontSize=24;fontColor=default;entryX=0.5;entryY=1;entryDx=0;entryDy=0;endArrow=none;endFill=0;" edge="1" parent="1" source="GF1Wdmy1YUisDk9Af-3S-115" target="GF1Wdmy1YUisDk9Af-3S-118">
          <mxGeometry relative="1" as="geometry">
            <mxPoint x="3110.1400000000003" y="115" as="targetPoint" />
            <Array as="points">
              <mxPoint x="3110.1400000000003" y="35" />
              <mxPoint x="3110.1400000000003" y="315" />
              <mxPoint x="2630.1400000000003" y="315" />
            </Array>
          </mxGeometry>
        </mxCell>
        <mxCell id="GF1Wdmy1YUisDk9Af-3S-115" value="if (0 &amp;lt;= d &amp;amp;&amp;amp; d &amp;lt; 8){" style="rhombus;whiteSpace=wrap;html=1;strokeColor=default;align=center;verticalAlign=middle;fontFamily=Times New Roman;fontSize=24;fontColor=default;fillColor=default;" vertex="1" parent="1">
          <mxGeometry x="2715.7700000000004" y="-65" width="296.25" height="200" as="geometry" />
        </mxCell>
        <mxCell id="GF1Wdmy1YUisDk9Af-3S-116" value="True" style="text;html=1;align=center;verticalAlign=middle;resizable=0;points=[];autosize=1;strokeColor=none;fillColor=none;fontSize=24;fontFamily=Times New Roman;fontColor=default;" vertex="1" parent="1">
          <mxGeometry x="2640.1400000000003" y="-5" width="70" height="40" as="geometry" />
        </mxCell>
        <mxCell id="GF1Wdmy1YUisDk9Af-3S-117" value="False" style="text;html=1;align=center;verticalAlign=middle;resizable=0;points=[];autosize=1;strokeColor=none;fillColor=none;fontSize=24;fontFamily=Times New Roman;fontColor=default;" vertex="1" parent="1">
          <mxGeometry x="3030.1400000000003" y="-5" width="70" height="40" as="geometry" />
        </mxCell>
        <mxCell id="GF1Wdmy1YUisDk9Af-3S-118" value="board [x][d] --;" style="whiteSpace=wrap;html=1;strokeColor=default;align=center;verticalAlign=middle;fontFamily=Times New Roman;fontSize=24;fontColor=default;fillColor=default;" vertex="1" parent="1">
          <mxGeometry x="2540.1400000000003" y="115" width="180" height="60" as="geometry" />
        </mxCell>
        <mxCell id="GF1Wdmy1YUisDk9Af-3S-119" value="" style="endArrow=classic;html=1;rounded=0;fontFamily=Times New Roman;fontSize=24;fontColor=default;" edge="1" parent="1">
          <mxGeometry width="50" height="50" relative="1" as="geometry">
            <mxPoint x="2863.0600000000004" y="315" as="sourcePoint" />
            <mxPoint x="2863.1400000000003" y="365" as="targetPoint" />
          </mxGeometry>
        </mxCell>
        <mxCell id="GF1Wdmy1YUisDk9Af-3S-120" style="edgeStyle=orthogonalEdgeStyle;rounded=0;orthogonalLoop=1;jettySize=auto;html=1;exitX=0.5;exitY=1;exitDx=0;exitDy=0;fontFamily=Times New Roman;fontSize=24;fontColor=default;" edge="1" parent="1" source="GF1Wdmy1YUisDk9Af-3S-121">
          <mxGeometry relative="1" as="geometry">
            <mxPoint x="2864.1400000000003" y="475" as="targetPoint" />
          </mxGeometry>
        </mxCell>
        <mxCell id="GF1Wdmy1YUisDk9Af-3S-121" value="d = j + i - x;" style="whiteSpace=wrap;html=1;strokeColor=default;align=center;verticalAlign=middle;fontFamily=Times New Roman;fontSize=24;fontColor=default;fillColor=default;" vertex="1" parent="1">
          <mxGeometry x="2798.8900000000003" y="365" width="130" height="60" as="geometry" />
        </mxCell>
        <mxCell id="GF1Wdmy1YUisDk9Af-3S-122" style="edgeStyle=orthogonalEdgeStyle;rounded=0;orthogonalLoop=1;jettySize=auto;html=1;exitX=0;exitY=0.5;exitDx=0;exitDy=0;fontFamily=Times New Roman;fontSize=24;fontColor=default;" edge="1" parent="1" source="GF1Wdmy1YUisDk9Af-3S-124">
          <mxGeometry relative="1" as="geometry">
            <mxPoint x="2630.1400000000003" y="675" as="targetPoint" />
            <Array as="points">
              <mxPoint x="2630.1400000000003" y="575" />
            </Array>
          </mxGeometry>
        </mxCell>
        <mxCell id="GF1Wdmy1YUisDk9Af-3S-123" style="edgeStyle=orthogonalEdgeStyle;rounded=0;orthogonalLoop=1;jettySize=auto;html=1;exitX=1;exitY=0.5;exitDx=0;exitDy=0;fontFamily=Times New Roman;fontSize=24;fontColor=default;entryX=0.5;entryY=1;entryDx=0;entryDy=0;endArrow=none;endFill=0;" edge="1" parent="1" source="GF1Wdmy1YUisDk9Af-3S-124" target="GF1Wdmy1YUisDk9Af-3S-127">
          <mxGeometry relative="1" as="geometry">
            <mxPoint x="3110.1400000000003" y="675" as="targetPoint" />
            <Array as="points">
              <mxPoint x="3110.1400000000003" y="575" />
              <mxPoint x="3110.1400000000003" y="875" />
              <mxPoint x="2630.1400000000003" y="875" />
            </Array>
          </mxGeometry>
        </mxCell>
        <mxCell id="GF1Wdmy1YUisDk9Af-3S-124" value="if (0 &amp;lt;= d &amp;amp;&amp;amp; d &amp;lt; 8){" style="rhombus;whiteSpace=wrap;html=1;strokeColor=default;align=center;verticalAlign=middle;fontFamily=Times New Roman;fontSize=24;fontColor=default;fillColor=default;" vertex="1" parent="1">
          <mxGeometry x="2710.1400000000003" y="475" width="307.18" height="200" as="geometry" />
        </mxCell>
        <mxCell id="GF1Wdmy1YUisDk9Af-3S-125" value="True" style="text;html=1;align=center;verticalAlign=middle;resizable=0;points=[];autosize=1;strokeColor=none;fillColor=none;fontSize=24;fontFamily=Times New Roman;fontColor=default;" vertex="1" parent="1">
          <mxGeometry x="2635.1400000000003" y="538" width="70" height="40" as="geometry" />
        </mxCell>
        <mxCell id="GF1Wdmy1YUisDk9Af-3S-126" value="False" style="text;html=1;align=center;verticalAlign=middle;resizable=0;points=[];autosize=1;strokeColor=none;fillColor=none;fontSize=24;fontFamily=Times New Roman;fontColor=default;" vertex="1" parent="1">
          <mxGeometry x="3030.1400000000003" y="538" width="70" height="40" as="geometry" />
        </mxCell>
        <mxCell id="GF1Wdmy1YUisDk9Af-3S-127" value="board [x][d] --;" style="whiteSpace=wrap;html=1;strokeColor=default;align=center;verticalAlign=middle;fontFamily=Times New Roman;fontSize=24;fontColor=default;fillColor=default;" vertex="1" parent="1">
          <mxGeometry x="2540.1400000000003" y="675" width="180" height="60" as="geometry" />
        </mxCell>
        <mxCell id="GF1Wdmy1YUisDk9Af-3S-128" value="False" style="text;html=1;align=center;verticalAlign=middle;resizable=0;points=[];autosize=1;strokeColor=none;fillColor=none;fontSize=24;fontFamily=Times New Roman;fontColor=default;" vertex="1" parent="1">
          <mxGeometry x="3125.1400000000003" y="-415" width="70" height="40" as="geometry" />
        </mxCell>
        <mxCell id="GF1Wdmy1YUisDk9Af-3S-129" value="board [i][j] = 0;" style="rounded=0;whiteSpace=wrap;html=1;strokeColor=default;align=center;verticalAlign=middle;fontFamily=Times New Roman;fontSize=24;fontColor=default;fillColor=default;" vertex="1" parent="1">
          <mxGeometry x="3290.1400000000003" y="-45" width="200" height="68.5" as="geometry" />
        </mxCell>
        <mxCell id="GF1Wdmy1YUisDk9Af-3S-130" value="}" style="text;html=1;align=center;verticalAlign=middle;resizable=0;points=[];autosize=1;strokeColor=none;fillColor=none;fontSize=24;fontFamily=Times New Roman;fontColor=default;" vertex="1" parent="1">
          <mxGeometry x="3490.1400000000003" y="-30.75" width="40" height="40" as="geometry" />
        </mxCell>
        <mxCell id="GF1Wdmy1YUisDk9Af-3S-131" value="}" style="text;html=1;align=center;verticalAlign=middle;resizable=0;points=[];autosize=1;strokeColor=none;fillColor=none;fontSize=24;fontFamily=Times New Roman;fontColor=default;" vertex="1" parent="1">
          <mxGeometry x="3390.1400000000003" y="-105" width="40" height="40" as="geometry" />
        </mxCell>
        <mxCell id="GF1Wdmy1YUisDk9Af-3S-132" value="}" style="text;html=1;align=center;verticalAlign=middle;resizable=0;points=[];autosize=1;strokeColor=none;fillColor=none;fontSize=24;fontFamily=Times New Roman;fontColor=default;" vertex="1" parent="1">
          <mxGeometry x="2843.73" y="268" width="40" height="40" as="geometry" />
        </mxCell>
        <mxCell id="GF1Wdmy1YUisDk9Af-3S-133" value="}" style="text;html=1;align=center;verticalAlign=middle;resizable=0;points=[];autosize=1;strokeColor=none;fillColor=none;fontSize=24;fontFamily=Times New Roman;fontColor=default;" vertex="1" parent="1">
          <mxGeometry x="2850.1400000000003" y="825" width="40" height="40" as="geometry" />
        </mxCell>
        <mxCell id="GF1Wdmy1YUisDk9Af-3S-134" value="bool tryQueen(int i){" style="text;html=1;align=center;verticalAlign=middle;resizable=0;points=[];autosize=1;strokeColor=none;fillColor=none;fontSize=24;fontFamily=Times New Roman;fontColor=default;" vertex="1" parent="1">
          <mxGeometry x="1160" y="1100" width="230" height="40" as="geometry" />
        </mxCell>
        <mxCell id="GF1Wdmy1YUisDk9Af-3S-135" value="" style="endArrow=classic;html=1;rounded=0;fontFamily=Times New Roman;fontSize=24;fontColor=default;entryX=0.5;entryY=0;entryDx=0;entryDy=0;" edge="1" parent="1" target="GF1Wdmy1YUisDk9Af-3S-164">
          <mxGeometry width="50" height="50" relative="1" as="geometry">
            <mxPoint x="1274.17" y="1140" as="sourcePoint" />
            <mxPoint x="1274.17" y="1205" as="targetPoint" />
          </mxGeometry>
        </mxCell>
        <mxCell id="GF1Wdmy1YUisDk9Af-3S-166" style="edgeStyle=orthogonalEdgeStyle;rounded=0;orthogonalLoop=1;jettySize=auto;html=1;exitX=0.5;exitY=1;exitDx=0;exitDy=0;fontFamily=Times New Roman;fontSize=24;fontColor=default;" edge="1" parent="1" source="GF1Wdmy1YUisDk9Af-3S-164">
          <mxGeometry relative="1" as="geometry">
            <mxPoint x="1274" y="1330" as="targetPoint" />
          </mxGeometry>
        </mxCell>
        <mxCell id="GF1Wdmy1YUisDk9Af-3S-164" value="bool result = false;" style="whiteSpace=wrap;html=1;strokeColor=default;align=center;verticalAlign=middle;fontFamily=Times New Roman;fontSize=24;fontColor=default;fillColor=default;" vertex="1" parent="1">
          <mxGeometry x="1170.3799999999999" y="1210" width="206.41" height="60" as="geometry" />
        </mxCell>
        <mxCell id="GF1Wdmy1YUisDk9Af-3S-168" style="edgeStyle=orthogonalEdgeStyle;rounded=0;orthogonalLoop=1;jettySize=auto;html=1;exitX=0.5;exitY=1;exitDx=0;exitDy=0;fontFamily=Times New Roman;fontSize=24;fontColor=default;" edge="1" parent="1" source="GF1Wdmy1YUisDk9Af-3S-167">
          <mxGeometry relative="1" as="geometry">
            <mxPoint x="1275.1764705882356" y="1480" as="targetPoint" />
          </mxGeometry>
        </mxCell>
        <mxCell id="GF1Wdmy1YUisDk9Af-3S-228" style="edgeStyle=orthogonalEdgeStyle;rounded=0;orthogonalLoop=1;jettySize=auto;html=1;exitX=0;exitY=0.5;exitDx=0;exitDy=0;fontFamily=Times New Roman;fontSize=24;fontColor=default;endArrow=none;endFill=0;startArrow=classic;startFill=1;" edge="1" parent="1" source="GF1Wdmy1YUisDk9Af-3S-167">
          <mxGeometry relative="1" as="geometry">
            <mxPoint x="1280" y="2600" as="targetPoint" />
            <Array as="points">
              <mxPoint x="690" y="1370" />
              <mxPoint x="690" y="2720" />
              <mxPoint x="1281" y="2720" />
            </Array>
          </mxGeometry>
        </mxCell>
        <mxCell id="GF1Wdmy1YUisDk9Af-3S-233" style="edgeStyle=orthogonalEdgeStyle;rounded=0;orthogonalLoop=1;jettySize=auto;html=1;exitX=1;exitY=0.5;exitDx=0;exitDy=0;fontFamily=Times New Roman;fontSize=24;fontColor=default;" edge="1" parent="1" source="GF1Wdmy1YUisDk9Af-3S-167">
          <mxGeometry relative="1" as="geometry">
            <mxPoint x="1960" y="1600" as="targetPoint" />
          </mxGeometry>
        </mxCell>
        <mxCell id="GF1Wdmy1YUisDk9Af-3S-167" value="for (int j = 0; j &amp;lt; 8; j ++){" style="shape=hexagon;perimeter=hexagonPerimeter2;whiteSpace=wrap;html=1;fixedSize=1;strokeColor=default;align=center;verticalAlign=middle;fontFamily=Times New Roman;fontSize=24;fontColor=default;fillColor=default;" vertex="1" parent="1">
          <mxGeometry x="1137.5" y="1330" width="275" height="80" as="geometry" />
        </mxCell>
        <mxCell id="GF1Wdmy1YUisDk9Af-3S-169" value="True" style="text;html=1;align=center;verticalAlign=middle;resizable=0;points=[];autosize=1;strokeColor=none;fillColor=none;fontSize=24;fontFamily=Times New Roman;fontColor=default;" vertex="1" parent="1">
          <mxGeometry x="1268.75" y="1420" width="70" height="40" as="geometry" />
        </mxCell>
        <mxCell id="GF1Wdmy1YUisDk9Af-3S-171" style="edgeStyle=orthogonalEdgeStyle;rounded=0;orthogonalLoop=1;jettySize=auto;html=1;exitX=0;exitY=0.5;exitDx=0;exitDy=0;fontFamily=Times New Roman;fontSize=24;fontColor=default;entryX=0.5;entryY=0;entryDx=0;entryDy=0;" edge="1" parent="1" source="GF1Wdmy1YUisDk9Af-3S-170" target="GF1Wdmy1YUisDk9Af-3S-205">
          <mxGeometry relative="1" as="geometry">
            <mxPoint x="1040" y="1720" as="targetPoint" />
            <Array as="points">
              <mxPoint x="1040" y="1565" />
              <mxPoint x="1040" y="1694" />
            </Array>
          </mxGeometry>
        </mxCell>
        <mxCell id="GF1Wdmy1YUisDk9Af-3S-203" style="edgeStyle=orthogonalEdgeStyle;rounded=0;orthogonalLoop=1;jettySize=auto;html=1;exitX=1;exitY=0.5;exitDx=0;exitDy=0;fontFamily=Times New Roman;fontSize=24;fontColor=default;endArrow=none;endFill=0;" edge="1" parent="1" source="GF1Wdmy1YUisDk9Af-3S-170">
          <mxGeometry relative="1" as="geometry">
            <mxPoint x="1040" y="2480" as="targetPoint" />
            <Array as="points">
              <mxPoint x="1640" y="1565" />
              <mxPoint x="1640" y="2600" />
              <mxPoint x="1040" y="2600" />
            </Array>
          </mxGeometry>
        </mxCell>
        <mxCell id="GF1Wdmy1YUisDk9Af-3S-170" value="if (board[i][j] == 0){" style="rhombus;whiteSpace=wrap;html=1;strokeColor=default;align=center;verticalAlign=middle;fontFamily=Times New Roman;fontSize=24;fontColor=default;fillColor=default;" vertex="1" parent="1">
          <mxGeometry x="1133.75" y="1480" width="282.5" height="170" as="geometry" />
        </mxCell>
        <mxCell id="GF1Wdmy1YUisDk9Af-3S-202" value="True" style="text;html=1;align=center;verticalAlign=middle;resizable=0;points=[];autosize=1;strokeColor=none;fillColor=none;fontSize=24;fontFamily=Times New Roman;fontColor=default;" vertex="1" parent="1">
          <mxGeometry x="1055.63" y="1520" width="70" height="40" as="geometry" />
        </mxCell>
        <mxCell id="GF1Wdmy1YUisDk9Af-3S-204" value="False" style="text;html=1;align=center;verticalAlign=middle;resizable=0;points=[];autosize=1;strokeColor=none;fillColor=none;fontSize=24;fontFamily=Times New Roman;fontColor=default;" vertex="1" parent="1">
          <mxGeometry x="1490" y="1520" width="70" height="40" as="geometry" />
        </mxCell>
        <mxCell id="GF1Wdmy1YUisDk9Af-3S-206" style="edgeStyle=orthogonalEdgeStyle;rounded=0;orthogonalLoop=1;jettySize=auto;html=1;exitX=0.5;exitY=1;exitDx=0;exitDy=0;fontFamily=Times New Roman;fontSize=24;fontColor=default;" edge="1" parent="1" source="GF1Wdmy1YUisDk9Af-3S-205">
          <mxGeometry relative="1" as="geometry">
            <mxPoint x="1039" y="1840" as="targetPoint" />
          </mxGeometry>
        </mxCell>
        <mxCell id="GF1Wdmy1YUisDk9Af-3S-205" value="setQueen(i, j);" style="whiteSpace=wrap;html=1;strokeColor=default;align=center;verticalAlign=middle;fontFamily=Times New Roman;fontSize=24;fontColor=default;fillColor=default;" vertex="1" parent="1">
          <mxGeometry x="943.75" y="1694" width="190" height="60" as="geometry" />
        </mxCell>
        <mxCell id="GF1Wdmy1YUisDk9Af-3S-208" style="edgeStyle=orthogonalEdgeStyle;rounded=0;orthogonalLoop=1;jettySize=auto;html=1;exitX=0;exitY=0.5;exitDx=0;exitDy=0;fontFamily=Times New Roman;fontSize=24;fontColor=default;" edge="1" parent="1" source="GF1Wdmy1YUisDk9Af-3S-207">
          <mxGeometry relative="1" as="geometry">
            <mxPoint x="840" y="2000" as="targetPoint" />
            <Array as="points">
              <mxPoint x="840" y="1905" />
              <mxPoint x="840" y="1960" />
            </Array>
          </mxGeometry>
        </mxCell>
        <mxCell id="GF1Wdmy1YUisDk9Af-3S-210" style="edgeStyle=orthogonalEdgeStyle;rounded=0;orthogonalLoop=1;jettySize=auto;html=1;exitX=1;exitY=0.5;exitDx=0;exitDy=0;fontFamily=Times New Roman;fontSize=24;fontColor=default;" edge="1" parent="1" source="GF1Wdmy1YUisDk9Af-3S-207">
          <mxGeometry relative="1" as="geometry">
            <mxPoint x="1240" y="2000" as="targetPoint" />
            <Array as="points">
              <mxPoint x="1240" y="1905" />
            </Array>
          </mxGeometry>
        </mxCell>
        <mxCell id="GF1Wdmy1YUisDk9Af-3S-207" value="if (i == 7){" style="rhombus;whiteSpace=wrap;html=1;strokeColor=default;align=center;verticalAlign=middle;fontFamily=Times New Roman;fontSize=24;fontColor=default;fillColor=default;" vertex="1" parent="1">
          <mxGeometry x="940" y="1840" width="200" height="130" as="geometry" />
        </mxCell>
        <mxCell id="GF1Wdmy1YUisDk9Af-3S-209" value="True" style="text;html=1;align=center;verticalAlign=middle;resizable=0;points=[];autosize=1;strokeColor=none;fillColor=none;fontSize=24;fontFamily=Times New Roman;fontColor=default;" vertex="1" parent="1">
          <mxGeometry x="860.0000000000001" y="1860" width="70" height="40" as="geometry" />
        </mxCell>
        <mxCell id="GF1Wdmy1YUisDk9Af-3S-211" value="False" style="text;html=1;align=center;verticalAlign=middle;resizable=0;points=[];autosize=1;strokeColor=none;fillColor=none;fontSize=24;fontFamily=Times New Roman;fontColor=default;" vertex="1" parent="1">
          <mxGeometry x="1150" y="1860" width="70" height="40" as="geometry" />
        </mxCell>
        <mxCell id="GF1Wdmy1YUisDk9Af-3S-227" style="edgeStyle=orthogonalEdgeStyle;rounded=0;orthogonalLoop=1;jettySize=auto;html=1;exitX=0.5;exitY=1;exitDx=0;exitDy=0;fontFamily=Times New Roman;fontSize=24;fontColor=default;endArrow=none;endFill=0;" edge="1" parent="1" source="GF1Wdmy1YUisDk9Af-3S-212">
          <mxGeometry relative="1" as="geometry">
            <mxPoint x="1240" y="2400" as="targetPoint" />
            <Array as="points">
              <mxPoint x="840" y="2480" />
              <mxPoint x="1240" y="2480" />
            </Array>
          </mxGeometry>
        </mxCell>
        <mxCell id="GF1Wdmy1YUisDk9Af-3S-212" value="result = true;" style="whiteSpace=wrap;html=1;strokeColor=default;align=center;verticalAlign=middle;fontFamily=Times New Roman;fontSize=24;fontColor=default;fillColor=default;" vertex="1" parent="1">
          <mxGeometry x="750" y="2000" width="180" height="60" as="geometry" />
        </mxCell>
        <mxCell id="GF1Wdmy1YUisDk9Af-3S-214" style="edgeStyle=orthogonalEdgeStyle;rounded=0;orthogonalLoop=1;jettySize=auto;html=1;exitX=0.5;exitY=1;exitDx=0;exitDy=0;fontFamily=Times New Roman;fontSize=24;fontColor=default;" edge="1" parent="1" source="GF1Wdmy1YUisDk9Af-3S-213" target="GF1Wdmy1YUisDk9Af-3S-215">
          <mxGeometry relative="1" as="geometry">
            <mxPoint x="1241" y="2120" as="targetPoint" />
          </mxGeometry>
        </mxCell>
        <mxCell id="GF1Wdmy1YUisDk9Af-3S-213" value="tryQueen(i + 1);" style="whiteSpace=wrap;html=1;strokeColor=default;align=center;verticalAlign=middle;fontFamily=Times New Roman;fontSize=24;fontColor=default;fillColor=default;" vertex="1" parent="1">
          <mxGeometry x="1150" y="2000" width="180" height="60" as="geometry" />
        </mxCell>
        <mxCell id="GF1Wdmy1YUisDk9Af-3S-216" style="edgeStyle=orthogonalEdgeStyle;rounded=0;orthogonalLoop=1;jettySize=auto;html=1;exitX=0;exitY=0.5;exitDx=0;exitDy=0;fontFamily=Times New Roman;fontSize=24;fontColor=default;" edge="1" parent="1" source="GF1Wdmy1YUisDk9Af-3S-215">
          <mxGeometry relative="1" as="geometry">
            <mxPoint x="1080" y="2280" as="targetPoint" />
            <Array as="points">
              <mxPoint x="1080" y="2185" />
            </Array>
          </mxGeometry>
        </mxCell>
        <mxCell id="GF1Wdmy1YUisDk9Af-3S-218" style="edgeStyle=orthogonalEdgeStyle;rounded=0;orthogonalLoop=1;jettySize=auto;html=1;exitX=1;exitY=0.5;exitDx=0;exitDy=0;fontFamily=Times New Roman;fontSize=24;fontColor=default;entryX=0.5;entryY=1;entryDx=0;entryDy=0;endArrow=none;endFill=0;" edge="1" parent="1" source="GF1Wdmy1YUisDk9Af-3S-215" target="GF1Wdmy1YUisDk9Af-3S-226">
          <mxGeometry relative="1" as="geometry">
            <mxPoint x="1410" y="2240" as="targetPoint" />
            <Array as="points">
              <mxPoint x="1480" y="2185" />
              <mxPoint x="1480" y="2400" />
              <mxPoint x="1080" y="2400" />
            </Array>
          </mxGeometry>
        </mxCell>
        <mxCell id="GF1Wdmy1YUisDk9Af-3S-215" value="if (not result){" style="rhombus;whiteSpace=wrap;html=1;strokeColor=default;align=center;verticalAlign=middle;fontFamily=Times New Roman;fontSize=24;fontColor=default;fillColor=default;" vertex="1" parent="1">
          <mxGeometry x="1140" y="2120" width="200" height="130" as="geometry" />
        </mxCell>
        <mxCell id="GF1Wdmy1YUisDk9Af-3S-217" value="True" style="text;html=1;align=center;verticalAlign=middle;resizable=0;points=[];autosize=1;strokeColor=none;fillColor=none;fontSize=24;fontFamily=Times New Roman;fontColor=default;" vertex="1" parent="1">
          <mxGeometry x="1080" y="2140" width="70" height="40" as="geometry" />
        </mxCell>
        <mxCell id="GF1Wdmy1YUisDk9Af-3S-222" value="False" style="text;html=1;align=center;verticalAlign=middle;resizable=0;points=[];autosize=1;strokeColor=none;fillColor=none;fontSize=24;fontFamily=Times New Roman;fontColor=default;" vertex="1" parent="1">
          <mxGeometry x="1370" y="2140" width="70" height="40" as="geometry" />
        </mxCell>
        <mxCell id="GF1Wdmy1YUisDk9Af-3S-226" value="removeQueen(i, j);" style="whiteSpace=wrap;html=1;strokeColor=default;align=center;verticalAlign=middle;fontFamily=Times New Roman;fontSize=24;fontColor=default;fillColor=default;" vertex="1" parent="1">
          <mxGeometry x="970" y="2278" width="220" height="60" as="geometry" />
        </mxCell>
        <mxCell id="GF1Wdmy1YUisDk9Af-3S-229" value="&lt;br&gt;}" style="text;html=1;align=center;verticalAlign=middle;resizable=0;points=[];autosize=1;strokeColor=none;fillColor=none;fontSize=24;fontFamily=Times New Roman;fontColor=default;" vertex="1" parent="1">
          <mxGeometry x="1221" y="2330" width="40" height="70" as="geometry" />
        </mxCell>
        <mxCell id="GF1Wdmy1YUisDk9Af-3S-231" value="&lt;br&gt;}" style="text;html=1;align=center;verticalAlign=middle;resizable=0;points=[];autosize=1;strokeColor=none;fillColor=none;fontSize=24;fontFamily=Times New Roman;fontColor=default;" vertex="1" parent="1">
          <mxGeometry x="1020" y="2410" width="40" height="70" as="geometry" />
        </mxCell>
        <mxCell id="GF1Wdmy1YUisDk9Af-3S-232" value="&lt;br&gt;}" style="text;html=1;align=center;verticalAlign=middle;resizable=0;points=[];autosize=1;strokeColor=none;fillColor=none;fontSize=24;fontFamily=Times New Roman;fontColor=default;" vertex="1" parent="1">
          <mxGeometry x="1261" y="2530" width="40" height="70" as="geometry" />
        </mxCell>
        <mxCell id="GF1Wdmy1YUisDk9Af-3S-234" value="return result;" style="whiteSpace=wrap;html=1;strokeColor=default;align=center;verticalAlign=middle;fontFamily=Times New Roman;fontSize=24;fontColor=default;fillColor=default;" vertex="1" parent="1">
          <mxGeometry x="1880" y="1600" width="160" height="60" as="geometry" />
        </mxCell>
        <mxCell id="GF1Wdmy1YUisDk9Af-3S-235" value="}" style="text;html=1;align=center;verticalAlign=middle;resizable=0;points=[];autosize=1;strokeColor=none;fillColor=none;fontSize=24;fontFamily=Times New Roman;fontColor=default;" vertex="1" parent="1">
          <mxGeometry x="1960" y="1545" width="40" height="40" as="geometry" />
        </mxCell>
        <mxCell id="GF1Wdmy1YUisDk9Af-3S-236" value="}" style="text;html=1;align=center;verticalAlign=middle;resizable=0;points=[];autosize=1;strokeColor=none;fillColor=none;fontSize=24;fontFamily=Times New Roman;fontColor=default;" vertex="1" parent="1">
          <mxGeometry x="2040" y="1610" width="40" height="40" as="geometry" />
        </mxCell>
        <mxCell id="GF1Wdmy1YUisDk9Af-3S-239" value="False" style="text;html=1;align=center;verticalAlign=middle;resizable=0;points=[];autosize=1;strokeColor=none;fillColor=none;fontSize=24;fontFamily=Times New Roman;fontColor=default;" vertex="1" parent="1">
          <mxGeometry x="1630" y="1330" width="70" height="40" as="geometry" />
        </mxCell>
      </root>
    </mxGraphModel>
  </diagram>
</mxfile>
